<?xml version="1.0" standalone="no"?>
<!DOCTYPE svg PUBLIC "-//W3C//DTD SVG 20010904//EN"
 "http://www.w3.org/TR/2001/REC-SVG-20010904/DTD/svg10.dtd">
<svg version="1.0" xmlns="http://www.w3.org/2000/svg"
 width="512.000000pt" height="512.000000pt" viewBox="0 0 512.000000 512.000000"
 preserveAspectRatio="xMidYMid meet">

<g transform="translate(0.000000,512.000000) scale(0.100000,-0.100000)"
fill="#000000" stroke="none">
<path d="M1645 3200 c-3 -5 1 -10 10 -10 9 0 13 5 10 10 -3 6 -8 10 -10 10 -2
0 -7 -4 -10 -10z"/>
<path d="M1584 3187 c-48 -27 -144 -130 -144 -155 0 -6 -7 -12 -15 -16 -8 -3
-15 -10 -15 -16 0 -6 -11 -27 -23 -48 -13 -20 -27 -49 -31 -64 -3 -16 -11 -28
-16 -28 -6 0 -10 -12 -10 -27 0 -16 -7 -37 -15 -47 -8 -11 -15 -33 -15 -48 0
-16 -4 -36 -9 -46 -5 -9 -17 -69 -26 -133 -19 -124 -19 -121 32 -419 3 -19 12
-44 19 -55 8 -11 14 -27 14 -36 0 -10 11 -39 24 -66 13 -26 27 -55 30 -63 18
-42 117 -181 162 -228 34 -37 50 -36 88 6 22 25 16 46 -27 92 -31 34 -78 99
-103 144 -27 46 -74 148 -74 159 0 7 -7 21 -15 31 -8 11 -15 29 -15 40 0 12
-7 41 -16 66 -24 66 -24 398 0 454 9 21 16 49 16 62 0 12 5 26 10 29 6 3 10
15 10 27 0 11 6 32 14 46 8 15 17 34 21 42 28 67 128 220 144 220 8 0 11 7 8
20 -3 11 -2 20 3 20 14 0 19 28 7 38 -8 7 -19 6 -33 -1z"/>
<path d="M2180 3030 c0 -5 -18 -13 -40 -16 -22 -4 -40 -10 -40 -15 0 -5 -11
-9 -24 -9 -13 0 -26 -7 -30 -15 -3 -8 -12 -15 -21 -15 -8 0 -38 -22 -65 -50
-27 -27 -54 -50 -60 -50 -5 0 -10 -6 -10 -14 0 -8 -6 -16 -13 -19 -8 -3 -22
-21 -31 -41 -9 -20 -22 -36 -27 -36 -6 0 -9 -14 -7 -32 2 -25 9 -33 31 -39 33
-9 57 -2 57 16 0 34 148 205 178 205 6 0 12 4 12 10 0 5 11 12 25 16 14 3 25
10 25 15 0 5 13 9 29 9 16 0 31 6 34 15 4 10 26 15 74 17 l68 3 -40 18 c-32
15 -44 16 -59 7 -15 -9 -21 -9 -27 2 -5 7 -9 16 -9 21 0 11 -30 8 -30 -3z"/>
<path d="M2500 3004 c0 -8 5 -12 10 -9 6 3 10 10 10 16 0 5 -4 9 -10 9 -5 0
-10 -7 -10 -16z"/>
<path d="M2433 2983 c9 -2 25 -2 35 0 9 3 1 5 -18 5 -19 0 -27 -2 -17 -5z"/>
<path d="M3280 2923 c0 -12 7 -23 15 -27 8 -3 15 -15 15 -26 0 -17 6 -20 40
-20 22 0 40 3 40 6 0 11 -50 54 -62 54 -6 0 -20 7 -30 17 -17 15 -18 15 -18
-4z"/>
<path d="M2336 2634 c-14 -13 -16 -50 -16 -248 0 -167 3 -235 12 -244 18 -18
75 -15 82 4 3 9 6 42 6 75 l0 59 94 0 c53 0 98 4 101 10 3 6 15 10 27 10 11 0
37 17 58 38 32 31 39 47 45 94 12 96 -28 167 -113 201 -59 24 -273 25 -296 1z
m270 -90 c25 -7 54 -53 54 -87 0 -14 -11 -38 -23 -53 -23 -26 -28 -27 -118
-28 l-94 -1 -3 88 -3 87 83 0 c46 0 92 -3 104 -6z"/>
<path d="M3058 2643 c-17 -4 -18 -25 -18 -254 l0 -249 26 -6 c14 -4 36 -2 50
5 24 11 24 11 24 166 0 85 3 155 8 155 4 0 39 -44 77 -96 39 -53 87 -114 107
-137 21 -23 40 -49 43 -58 7 -21 50 -43 69 -36 14 6 16 36 14 259 l-3 253 -30
3 c-48 6 -55 -15 -55 -170 0 -131 -1 -138 -18 -127 -10 6 -28 26 -40 43 -12
17 -33 45 -48 61 -14 17 -34 41 -43 55 -9 14 -29 41 -46 60 -72 83 -75 84
-117 73z"/>
<path d="M3828 2643 c-17 -4 -18 -25 -18 -253 l0 -248 23 -6 c29 -8 285 -8
315 0 19 6 23 12 20 43 l-3 36 -125 5 -125 5 -5 203 c-6 230 -7 235 -82 215z"/>
<path d="M1730 2564 c-31 -13 -50 -49 -50 -95 0 -98 102 -142 175 -75 21 19
25 32 25 77 0 44 -4 58 -22 73 -22 19 -99 31 -128 20z"/>
<path d="M1826 2284 c-11 -8 -28 -14 -38 -14 -24 0 -15 -45 25 -119 40 -75 49
-87 110 -150 57 -59 127 -107 197 -135 25 -10 53 -22 62 -27 60 -31 296 -29
385 3 37 13 41 29 17 76 -16 33 -41 41 -62 20 -9 -9 -53 -13 -147 -13 -94 0
-138 4 -146 13 -7 6 -23 12 -35 12 -13 0 -26 4 -29 10 -3 5 -25 18 -48 28 -23
11 -65 40 -94 66 -54 49 -143 172 -143 198 0 8 -8 22 -17 31 -16 13 -20 14
-37 1z"/>
<path d="M2666 2003 c-30 -30 -31 -36 -10 -68 24 -36 65 -34 87 5 20 34 18 41
-22 69 l-29 21 -26 -27z"/>
<path d="M3267 1962 c-10 -10 -17 -22 -17 -26 0 -8 -44 -69 -70 -98 -8 -9 -28
-34 -44 -55 -39 -50 -141 -137 -216 -185 -68 -43 -182 -98 -203 -98 -7 0 -17
-4 -23 -10 -31 -31 -284 -57 -426 -42 -110 11 -197 28 -213 43 -5 5 -19 9 -31
9 -13 0 -26 5 -29 10 -15 24 -45 9 -64 -32 l-20 -43 22 -17 c12 -10 28 -18 35
-18 8 0 28 -6 45 -14 47 -20 160 -46 199 -46 19 0 60 -5 92 -12 44 -8 78 -8
144 1 156 21 248 40 297 61 17 7 39 16 50 21 78 31 219 108 235 128 3 3 25 22
50 43 80 65 125 111 183 190 31 42 57 80 57 83 0 3 11 23 25 45 14 22 25 49
25 60 0 17 -7 20 -43 20 -30 0 -49 -6 -60 -18z"/>
<path d="M1709 1672 c-51 -34 -59 -48 -59 -106 0 -48 4 -58 31 -85 26 -27 38
-31 83 -31 45 0 57 4 84 31 28 27 32 38 32 84 0 41 -5 57 -25 79 -44 47 -101
58 -146 28z"/>
</g>
</svg>
